<svg xmlns="http://www.w3.org/2000/svg" width="30" height="30" viewBox="0 0 30 30"><defs><style>.a{fill:gray;}</style></defs><path class="a" d="M33.1,26.68a3.648,3.648,0,0,0-1.922-.7,2.86,2.86,0,0,1-1.766-.781,2.166,2.166,0,0,1,0-3.422l2.367-2.1a7.607,7.607,0,0,0,0-11.656A15.019,15.019,0,0,0,21.8,4.5,18.885,18.885,0,0,0,9.391,9.2a13.689,13.689,0,0,0,0,20.977A18.289,18.289,0,0,0,21.335,34.5h.133a17.58,17.58,0,0,0,11.624-4.094A2.637,2.637,0,0,0,33.1,26.68ZM8.875,16.375a2.5,2.5,0,1,1,2.5,2.5A2.5,2.5,0,0,1,8.875,16.375ZM12,26.219a2.5,2.5,0,1,1,2.5-2.5A2.5,2.5,0,0,1,12,26.219Zm5-12.578a2.5,2.5,0,1,1,2.5-2.5A2.5,2.5,0,0,1,17,13.641ZM22.624,30.75A3.75,3.75,0,1,1,26.374,27,3.751,3.751,0,0,1,22.624,30.75ZM24.5,14.5A2.5,2.5,0,1,1,27,12,2.5,2.5,0,0,1,24.5,14.5Z" transform="translate(-4.498 -4.5)"/></svg>